Coordinates
version=1
nRows=14
nColumns=46
inDegrees=yes

Units are S.I. units (second, meters, Newtons, ...)
Angles are in degrees.

endheader
time	pelvis_tilt	pelvis_list	pelvis_rotation	pelvis_tx	pelvis_ty	pelvis_tz	bb_angle	bb_tx	bb_ty	bb_tz	hip_flexion_r	hip_adduction_r	hip_rotation_r	knee_angle_r	knee_angle_r_beta	ankle_angle_r	subtalar_angle_r	mtp_angle_r	crank_angle_r	hip_flexion_l	hip_adduction_l	hip_rotation_l	knee_angle_l	knee_angle_l_beta	ankle_angle_l	subtalar_angle_l	mtp_angle_l	crank_angle_l	lumbar_extension	lumbar_bending	lumbar_rotation	arm_flex_r	arm_add_r	arm_rot_r	elbow_flex_r	pro_sup_r	wrist_flex_r	wrist_dev_r	arm_flex_l	arm_add_l	arm_rot_l	elbow_flex_l	pro_sup_l	wrist_flex_l	wrist_dev_l
      2.50500000	    -11.21506544	      7.80007473	      3.10051448	      0.11629949	      1.14833203	     -0.26696235	      0.00000000	      0.50000000	      0.00000000	      0.25000000	     41.35457498	    -13.55799244	     -2.57628897	     37.17960224	      0.64890647	    -19.66908249	     -1.23878502	      0.00000000	      0.00000000	     85.96064471	     -7.07327223	     -5.22146573	    110.04821646	      1.92070371	      0.97764209	     -3.81447353	      0.00000000	      0.00000000	    -60.79969343	     -0.55837262	     -9.86142565	     87.08089204	    -11.48975640	     41.08182047	     43.83407909	     42.62617814	      0.00000000	      0.00000000	     88.30140721	    -22.85159135	     47.97220315	     45.29496367	     45.18475974	      0.00000000	      0.00000000
      2.51000000	    -11.12538644	      7.72262746	      3.15227258	      0.11577820	      1.14870595	     -0.26654399	      0.00000000	      0.50000000	      0.00000000	      0.25000000	     41.13883042	    -13.46229560	     -2.45805102	     37.66107528	      0.65730976	    -19.76161814	     -1.33726558	      0.00000000	      0.00000000	     86.23404846	     -6.89598554	     -5.11070055	    109.58813753	      1.91267382	      1.12071145	     -3.90277915	      0.00000000	      0.00000000	    -60.89014104	     -0.59874835	     -9.87679328	     87.09122760	    -11.49121996	     41.11063305	     43.79372473	     42.62201434	      0.00000000	      0.00000000	     88.26777619	    -22.83886696	     47.94535146	     45.31201602	     45.18391884	      0.00000000	      0.00000000
      2.51500000	    -11.26221763	      7.89547598	      3.45703293	      0.11498963	      1.14790905	     -0.26691547	      0.00000000	      0.50000000	      0.00000000	      0.25000000	     41.58614841	    -13.83969605	     -2.45705188	     38.99537200	      0.68059763	    -19.69152932	     -2.32327086	      0.00000000	      0.00000000	     86.74424247	     -6.25743809	     -5.23516767	    109.16972631	      1.90537117	      1.34844984	     -4.39894090	      0.00000000	      0.00000000	    -60.68823017	     -0.52353231	    -10.30740578	     87.43429949	    -11.25461892	     42.02126572	     42.90343491	     42.54766525	      0.00000000	      0.00000000	     87.97471649	    -22.88794517	     46.84114071	     45.71613801	     45.10950279	      0.00000000	      0.00000000
      2.52000000	    -11.07891372	      7.79751720	      3.54509628	      0.11443463	      1.14770505	     -0.26692555	      0.00000000	      0.50000000	      0.00000000	      0.25000000	     41.54952958	    -13.82880046	     -2.44673750	     40.09162953	      0.69973094	    -19.60908732	     -2.78805855	      0.00000000	      0.00000000	     86.85420591	     -5.91819905	     -5.05277412	    108.72457493	      1.89760181	      1.89612387	     -4.46537724	      0.00000000	      0.00000000	    -60.83746462	     -0.42933043	    -10.26951924	     87.50934228	    -11.23863948	     42.05661982	     42.82308458	     42.53367417	      0.00000000	      0.00000000	     87.96106174	    -22.87334329	     46.74912913	     45.79754409	     45.11262311	      0.00000000	      0.00000000
      2.52500000	    -11.17706825	      7.80052184	      3.78576516	      0.11372378	      1.14695326	     -0.26709334	      0.00000000	      0.50000000	      0.00000000	      0.25000000	     41.91332522	    -14.01842108	     -2.54101810	     41.40766629	      0.72270011	    -19.31263434	     -3.61776313	      0.00000000	      0.00000000	     87.12433379	     -5.28335953	     -4.81183687	    108.11941068	      1.88703970	      2.78511730	     -3.96792081	      0.00000000	      0.00000000	    -60.69061289	     -0.39862418	    -10.50810100	     87.60618368	    -11.14335320	     42.28232826	     42.42575648	     42.47193166	      0.00000000	      0.00000000	     87.79390618	    -22.87831493	     46.27024167	     46.16732214	     45.12328126	      0.00000000	      0.00000000
      2.53000000	    -10.98226053	      7.62206269	      3.83360612	      0.11302777	      1.14649453	     -0.26705094	      0.00000000	      0.50000000	      0.00000000	      0.25000000	     41.97023742	    -13.88640880	     -2.50326079	     42.71923703	      0.74559134	    -19.00806056	     -4.26347027	      0.00000000	      0.00000000	     87.06304697	     -4.87727915	     -4.48847766	    107.56678309	      1.87739453	      3.63437314	     -4.21792383	      0.00000000	      0.00000000	    -60.87288869	     -0.24135609	    -10.42427947	     87.69621752	    -11.07992427	     42.29327453	     42.37079711	     42.45843680	      0.00000000	      0.00000000	     87.77754916	    -22.87586435	     46.17674516	     46.24590375	     45.12691925	      0.00000000	      0.00000000
      2.53500000	    -10.92228162	      7.50780668	      3.99556152	      0.11244493	      1.14580120	     -0.26718411	      0.00000000	      0.50000000	      0.00000000	      0.25000000	     42.21201420	    -13.95433540	     -2.77290354	     44.18864264	      0.77123731	    -18.53066908	     -5.33703149	      0.00000000	      0.00000000	     86.99347837	     -4.32102578	     -4.18823676	    106.88254130	      1.86545226	      4.76646138	     -4.12406317	      0.00000000	      0.00000000	    -60.88548460	     -0.15627778	    -10.49968776	     87.79586531	    -11.07599158	     42.29828058	     42.23488845	     42.42749090	      0.00000000	      0.00000000	     87.75492296	    -22.82246511	     45.99392487	     46.41465479	     45.13552748	      0.00000000	      0.00000000
      2.54000000	    -10.93587500	      7.45584191	      4.23298072	      0.11181056	      1.14503256	     -0.26733180	      0.00000000	      0.50000000	      0.00000000	      0.25000000	     42.56896094	    -14.11291841	     -3.02290170	     45.73779154	      0.79827506	    -18.21473706	     -6.53470854	      0.00000000	      0.00000000	     86.84400912	     -3.62678480	     -3.89276347	    106.06803443	      1.85123643	      6.23321347	     -3.68581129	      0.00000000	      0.00000000	    -60.86622670	     -0.05629643	    -10.63507011	     87.82214900	    -11.01890055	     42.33512446	     41.98669884	     42.37250054	      0.00000000	      0.00000000	     87.65127509	    -22.76796019	     45.56280265	     46.69748688	     45.13844356	      0.00000000	      0.00000000
      2.54500000	    -10.86708521	      7.32853251	      4.36979381	      0.11117868	      1.14430004	     -0.26732767	      0.00000000	      0.50000000	      0.00000000	      0.25000000	     42.84436558	    -14.12816806	     -3.21915231	     47.28162078	      0.82521996	    -17.77134054	     -7.42992580	      0.00000000	      0.00000000	     86.50655253	     -3.04345714	     -3.56563940	    105.16789976	      1.83552612	      7.74292620	     -3.58731328	      0.00000000	      0.00000000	    -60.92038748	      0.03323019	    -10.65656897	     87.88142439	    -10.97521295	     42.32868714	     41.81557905	     42.32603892	      0.00000000	      0.00000000	     87.59857643	    -22.71024685	     45.15720070	     46.91870195	     45.13481298	      0.00000000	      0.00000000
      2.55000000	    -10.79012372	      7.14137941	      4.42926795	      0.11051653	      1.14347487	     -0.26735726	      0.00000000	      0.50000000	      0.00000000	      0.25000000	     43.14710889	    -14.04746889	     -3.36615419	     48.83743596	      0.85237406	    -17.34319790	     -8.21326867	      0.00000000	      0.00000000	     86.08068878	     -2.53230536	     -3.23130211	    104.19005550	      1.81845952	      9.29450777	     -3.77620390	      0.00000000	      0.00000000	    -60.97653807	      0.10181147	    -10.58268423	     87.93968320	    -10.97940574	     42.28908012	     41.71536944	     42.29305993	      0.00000000	      0.00000000	     87.58140080	    -22.63526751	     44.88851509	     47.08249748	     45.13554212	      0.00000000	      0.00000000
      2.55500000	    -10.71785782	      6.92272956	      4.43872723	      0.10987656	      1.14259837	     -0.26735717	      0.00000000	      0.50000000	      0.00000000	      0.25000000	     43.46653676	    -13.90631185	     -3.45543057	     50.37093758	      0.87913871	    -17.01982460	     -8.81854755	      0.00000000	      0.00000000	     85.54952925	     -2.02004012	     -2.82937725	    103.08221585	      1.79912407	     10.84104079	     -4.15983065	      0.00000000	      0.00000000	    -60.98878786	      0.18343080	    -10.39473695	     87.95609219	    -10.97039696	     42.25982367	     41.65565584	     42.27326214	      0.00000000	      0.00000000	     87.55981066	    -22.57823237	     44.72480302	     47.19526294	     45.13835423	      0.00000000	      0.00000000
      2.56000000	    -10.65435965	      6.74446467	      4.47125921	      0.10926508	      1.14160521	     -0.26753039	      0.00000000	      0.50000000	      0.00000000	      0.25000000	     43.83540790	    -13.85739651	     -3.54974298	     51.93242859	      0.90639187	    -16.64080511	     -9.45884168	      0.00000000	      0.00000000	     84.94055166	     -1.48613344	     -2.51449531	    101.86822181	      1.77793587	     12.47249827	     -4.46085675	      0.00000000	      0.00000000	    -60.98895091	      0.22540443	    -10.24375410	     87.96841330	    -11.02794656	     42.20777293	     41.56523448	     42.24543172	      0.00000000	      0.00000000	     87.47279365	    -22.45588602	     44.55304738	     47.34023282	     45.14666308	      0.00000000	      0.00000000
      2.56500000	    -10.57655729	      6.58911199	      4.43919858	      0.10872230	      1.14053645	     -0.26770777	      0.00000000	      0.50000000	      0.00000000	      0.25000000	     44.23186222	    -13.82668980	     -3.59378222	     53.51308165	      0.93397947	    -16.23433166	     -9.98148812	      0.00000000	      0.00000000	     84.23979070	     -1.00297617	     -2.20694568	    100.56230219	      1.75514328	     14.05507434	     -4.73306832	      0.00000000	      0.00000000	    -60.97079002	      0.23524145	    -10.07997930	     87.96938390	    -11.10478652	     42.15218045	     41.46032113	     42.21396030	      0.00000000	      0.00000000	     87.33793059	    -22.29073735	     44.33459457	     47.50010553	     45.15389655	      0.00000000	      0.00000000
      2.57000000	    -10.51435464	      6.38290495	      4.33287394	      0.10830989	      1.13932262	     -0.26796694	      0.00000000	      0.50000000	      0.00000000	      0.25000000	     44.66848594	    -13.71157517	     -3.55347018	     55.08869719	      0.96147915	    -15.84686176	    -10.33428360	      0.00000000	      0.00000000	     83.54627750	     -0.64211715	     -1.92587012	     99.24837964	      1.73221100	     15.49290838	     -5.10811088	      0.00000000	      0.00000000	    -60.91437459	      0.22386723	     -9.83208526	     87.93671108	    -11.15643587	     42.11213103	     41.36588230	     42.18660936	      0.00000000	      0.00000000	     87.15197936	    -22.15852124	     44.08433228	     47.64580066	     45.15703052	      0.00000000	      0.00000000
